PathFileType	4	(X/Y/Z)	C:/Users/opensim2020/Desktop/walking_exp_matlab/subject02_walking06_straight_03.trc																																																																																																																									
DataRate	CameraRate	NumFrames	NumMarkers	Units	OrigDataRate	OrigDataStartFrame	OrigNumFrames																																																																																																																					
100	100	4	41	mm	100	2174	223																																																																																																																					
Frame#	Time	LFHD			RFHD			LBHD			RBHD			C7			T10			CLAV			STRN			RBAK			LSHO			LUPA			LELB			LFRM			LWRA			LWRB			LFIN			RSHO			RUPA			RELB			RFRM			RWRA			RWRB			RFIN			LASI			RASI			LPSI			RPSI			LTHI			LKNE			LTIB			LANK			LHEE			LTOE			RTHI			RKNE			RTIB			RANK			RHEE			RTOE			*39			*40		
		X1	Y1	Z1	X2	Y2	Z2	X3	Y3	Z3	X4	Y4	Z4	X5	Y5	Z5	X6	Y6	Z6	X7	Y7	Z7	X8	Y8	Z8	X9	Y9	Z9	X10	Y10	Z10	X11	Y11	Z11	X12	Y12	Z12	X13	Y13	Z13	X14	Y14	Z14	X15	Y15	Z15	X16	Y16	Z16	X17	Y17	Z17	X18	Y18	Z18	X19	Y19	Z19	X20	Y20	Z20	X21	Y21	Z21	X22	Y22	Z22	X23	Y23	Z23	X24	Y24	Z24	X25	Y25	Z25	X26	Y26	Z26	X27	Y27	Z27	X28	Y28	Z28	X29	Y29	Z29	X30	Y30	Z30	X31	Y31	Z31	X32	Y32	Z32	X33	Y33	Z33	X34	Y34	Z34	X35	Y35	Z35	X36	Y36	Z36	X37	Y37	Z37	X38	Y38	Z38	X39	Y39	Z39	X40	Y40	Z40	X41	Y41	Z41
																																																																																																																												
168	1.67	710.65601	1758.88245	1335.85535	719.20123	1739.84094	1478.31238	596.52533	1660.5188	1330.69763	592.99451	1637.05872	1471.99988	563.19092	1524.96448	1401.39368	517.90991	1252.1593	1420.43396	705.15631	1462.83044	1384.4928	762.97803	1291.10669	1394.07324	515.4389	1354.90637	1475.26233	629.94281	1498.72986	1217.24585	627.41138	1292.80139	1147.35107	628.89996	1152.03943	1148.9563	635.13446	1022.07794	1137.94727	681.44952	891.68927	1174.92395	641.51935	899.17517	1135.33301	648.50647	831.43341	1137.97375	656.35132	1499.57178	1583.50928	633.01978	1312.74414	1675.8595	645.13251	1167.01355	1697.20923	673.56195	1051.32178	1720.74768	719.48352	923.3139	1705.64014	674.47015	922.28265	1740.4353	710.84229	859.31134	1744.71826	731.53644	984.58142	1273.59277	763.7428	983.8916	1529.11108	534.73975	1032.33398	1381.98975	544.37091	1038.82727	1496.76538	697.35126	675.55792	1218.78662	695.36963	490.80237	1236.40088	552.68854	378.89203	1266.89001	429.43332	197.7695	1309.18274	404.14996	187.63969	1372.4104	511.6218	76.97008	1255.59937	722.21698	675.89032	1593.75085	733.6217	468.88345	1541.66638	694.75024	282.98666	1542.26135	675.43829	92.65269	1494.52856	637.98438	41.30687	1438.87134	827.76715	41.74216	1503.74109	601.33618	1803.21106	1429.73242	2845.22998	1033.89258	-3360.19702
169	1.68	719.88013	1760.3269	1335.24219	729.01294	1741.41443	1477.49841	605.48895	1661.45544	1330.604	602.95673	1638.32642	1472.11035	572.80396	1526.4668	1401.99304	526.98444	1253.89258	1421.7572	714.75385	1463.99072	1384.13721	772.33539	1292.18262	1394.08411	525.39325	1356.95068	1476.43616	638.4303	1499.71472	1217.45068	632.13013	1293.65698	1147.27954	631.37592	1153.0116	1149.42151	634.7735	1023.00513	1138.38745	678.59985	891.5354	1176.35437	639.30261	899.90509	1135.70996	644.6723	831.89978	1139.47864	667.42212	1501.58533	1583.18823	647.04199	1314.7533	1676.69226	661.11768	1169.08057	1698.2019	692.10321	1053.97839	1721.2196	740.23529	926.94855	1704.89404	695.70313	924.83545	1740.37976	733.7417	862.92365	1744.20862	740.70477	987.1662	1273.97778	771.91052	984.9281	1529.82629	543.52075	1033.8269	1382.52332	553.07446	1040.0144	1497.20007	711.35803	678.58588	1218.005	713.49261	493.40692	1236.00073	574.06116	377.14621	1266.31726	457.17633	191.78334	1308.63586	431.26752	180.74559	1371.63989	543.64227	75.14368	1254.85242	725.92462	675.79193	1593.60828	735.78314	468.83591	1541.75757	696.04944	283.0657	1542.13721	675.60284	92.69089	1494.30078	637.97107	41.30917	1438.65613	827.80365	41.66082	1503.79846	610.81372	1804.56165	1429.64722	2845.18042	1033.97864	-3360.2644
170	1.69	728.7002	1761.36096	1334.224	738.84448	1742.88953	1476.58728	614.71912	1662.47327	1330.78552	612.80884	1639.4917	1471.87097	582.49377	1527.89148	1402.45422	536.23785	1255.58618	1423.01404	724.25104	1465.05029	1383.75586	781.64587	1293.19641	1394.12524	535.24683	1358.72034	1477.54138	646.8714	1500.5177	1217.65723	636.71631	1294.63623	1147.15051	633.52942	1153.98022	1149.68433	635.34955	1024.05884	1138.53613	676.01953	891.59851	1177.65649	637.73694	900.6662	1136.64221	641.53888	832.20166	1140.91174	678.25714	1503.54932	1582.88599	661.07123	1316.83362	1677.66199	676.97424	1171.01855	1698.98303	710.65106	1056.52893	1721.18176	760.7301	930.55481	1703.83508	717.15234	927.57416	1740.25037	756.66351	866.63043	1743.41235	750.0824	989.70746	1275.08862	779.94312	985.87372	1530.63855	552.32617	1035.25525	1382.62134	561.56976	1040.77795	1497.05554	725.25897	681.4679	1217.30359	731.16992	495.8197	1235.55286	595.42719	374.82657	1265.43518	484.63498	185.49303	1307.94507	458.90799	173.40614	1371.03687	576.55774	73.01187	1253.94312	729.71301	676.21368	1592.99121	738.13489	468.77676	1541.75867	697.74933	283.13474	1542.11157	675.91272	93.03984	1494.33264	637.95129	41.38776	1438.58142	827.88293	41.58803	1503.84119	620.13568	1805.59644	1429.08154	2845.10303	1033.86401	-3360.33911
171	1.7	737.55212	1762.26379	1333.2019	748.67499	1744.24292	1475.57495	623.79944	1663.30603	1330.7218	622.78546	1640.6189	1471.86096	592.23047	1529.24414	1402.83716	545.31903	1257.08533	1424.07007	733.68591	1466.03918	1383.39502	789.35223	1293.771	1393.58887	544.99658	1360.57092	1478.802	655.17267	1501.19861	1217.7511	641.25482	1295.48804	1147.00305	635.63165	1154.94482	1149.76709	636.12085	1024.72632	1139.1167	673.75226	891.85266	1178.823	635.85034	901.26776	1137.0531	639.05341	833.03973	1142.00195	689.31598	1505.41321	1582.7301	674.86353	1318.7843	1678.3324	693.12769	1173.21887	1700.04858	729.10052	1059.08179	1721.13867	781.58594	934.38751	1702.77454	738.46899	930.25281	1739.78601	779.54572	870.48462	1742.45178	759.84613	992.15198	1276.22913	787.86011	986.70947	1531.49451	561.25861	1036.46265	1382.04614	570.11658	1041.87488	1496.99585	738.92328	684.44958	1216.68982	748.38202	498.04816	1235.09692	616.84949	371.84183	1264.32471	513.2005	178.30086	1307.20129	487.92374	164.64824	1370.14722	610.66907	70.53217	1253.05139	733.12549	675.96332	1592.46179	740.32593	468.49289	1541.65552	699.53973	283.15979	1541.92041	676.34009	93.41895	1494.448	638.00153	41.5438	1438.4563	827.89832	41.51453	1503.92554	629.71893	1806.58301	1428.88184	2845.1543	1033.74402	-3360.35669
